<?xml version="1.0" standalone="no"?>
<!DOCTYPE svg PUBLIC "-//W3C//DTD SVG 20010904//EN"
 "http://www.w3.org/TR/2001/REC-SVG-20010904/DTD/svg10.dtd">
<svg version="1.0" xmlns="http://www.w3.org/2000/svg"
 width="260.000000pt" height="260.000000pt" viewBox="0 0 260.000000 260.000000"
 preserveAspectRatio="xMidYMid meet">
<metadata>
Created by potrace 1.11, written by Peter Selinger 2001-2013
</metadata>
<g transform="translate(0.000000,260.000000) scale(0.100000,-0.100000)"
fill="#000000" stroke="none">
<path d="M1375 2301 c-16 -10 -46 -36 -66 -58 -24 -26 -52 -44 -81 -52 -43
-12 -47 -12 -89 18 -102 70 -134 49 -129 -84 1 -38 -2 -42 -62 -87 -197 -146
-351 -361 -442 -617 l-27 -74 22 -15 c13 -9 19 -21 16 -33 -5 -18 9 -25 37
-20 4 1 15 -4 24 -11 10 -9 13 -9 9 -1 -5 8 6 11 43 10 27 -1 50 0 50 3 0 11
80 8 80 -3 0 -8 4 -7 9 2 6 9 23 12 55 10 25 -2 46 -1 46 3 0 11 52 1 60 -12
4 -6 10 -11 14 -11 22 3 36 0 32 -7 -2 -4 30 -8 73 -7 67 0 83 4 118 27 45 30
53 28 53 -13 0 -15 5 -40 10 -54 15 -39 25 -197 25 -390 0 -177 -8 -284 -30
-432 -2 -14 3 -23 16 -26 22 -6 26 8 5 16 -10 4 -12 16 -6 49 25 133 33 477
17 674 -6 79 -5 93 9 98 20 8 57 -12 48 -26 -4 -7 -3 -8 5 -4 6 4 9 11 6 16
-5 9 45 18 64 12 8 -3 9 -8 2 -16 -8 -9 -7 -13 4 -13 8 0 12 4 9 8 -2 4 0 10
6 14 9 5 199 10 210 5 13 -6 50 -7 50 -1 0 8 106 5 120 -4 5 -3 8 -10 6 -14
-3 -4 1 -8 9 -8 10 0 12 4 5 12 -8 9 -3 14 18 17 34 5 54 0 47 -12 -3 -5 0
-12 6 -16 7 -4 9 -3 5 4 -3 6 -2 13 4 17 14 9 203 10 218 1 6 -4 19 -3 29 2
17 10 66 -5 59 -17 -3 -4 -7 -38 -11 -76 -4 -39 -8 -85 -10 -102 -2 -18 -1
-33 4 -33 4 0 9 21 10 48 3 55 8 105 11 112 1 3 1 13 0 24 -1 12 3 16 10 11 9
-5 9 -2 2 11 -10 20 -5 47 7 40 3 -3 7 10 7 27 0 18 3 57 8 87 23 154 9 244
-38 255 -139 32 -224 39 -446 39 -198 0 -411 -11 -462 -25 -69 -18 -103 -80
-93 -169 l6 -55 -51 -23 c-86 -40 -107 -39 -175 6 -33 22 -70 49 -83 61 -51
50 -73 110 -50 139 11 13 11 14 -1 7 -12 -7 -12 -5 0 13 24 33 68 64 80 56 7
-4 9 -3 5 4 -6 10 30 28 47 24 4 -1 7 3 7 9 0 8 5 7 16 -1 12 -11 15 -11 12 0
-2 9 23 21 76 36 74 22 80 23 92 6 12 -15 12 -15 7 6 -3 13 -2 22 3 21 11 -3
34 6 92 32 24 11 48 16 54 13 6 -4 9 -3 6 2 -3 5 16 25 43 44 26 19 51 45 54
58 4 17 11 22 23 17 13 -5 14 -3 5 6 -9 9 -8 22 2 55 7 24 9 42 5 39 -4 -3
-10 1 -13 8 -2 7 8 26 24 41 16 16 29 33 29 38 0 5 3 7 8 5 4 -3 8 19 10 48 2
39 -3 66 -19 100 -35 74 -76 92 -134 56z m-239 -373 c19 -23 19 -23 -1 -7 -11
9 -27 19 -35 22 -13 5 -13 6 1 6 9 1 24 -9 35 -21z m-66 9 c0 -2 -12 -14 -27
-28 l-28 -24 24 28 c23 25 31 32 31 24z m100 -62 c14 -19 14 -19 -2 -6 -10 7
-18 18 -18 24 0 6 1 8 3 6 1 -2 9 -13 17 -24z m40 -534 c0 -11 -18 -30 -42
-47 -36 -24 -53 -28 -103 -27 -33 0 -75 7 -94 16 l-33 14 26 5 c14 3 26 1 26
-4 0 -5 5 -6 11 -2 6 3 27 9 47 11 20 3 59 16 87 28 62 29 75 30 75 6z"/>
<path d="M1645 2008 c-78 -15 -127 -31 -141 -45 -8 -8 -14 -10 -14 -4 0 6 -4
11 -9 11 -6 0 -9 -9 -8 -19 0 -11 4 -18 8 -15 11 6 86 -154 108 -231 11 -38
20 -62 20 -52 2 45 -65 221 -99 262 -11 13 -5 18 33 35 64 28 129 39 217 35
159 -7 273 -59 386 -174 27 -27 48 -53 46 -56 -2 -4 3 -12 11 -18 21 -17 61
-93 85 -162 37 -108 46 -216 26 -325 -20 -105 -25 -124 -35 -135 -5 -5 -9 -16
-9 -25 0 -16 -65 -148 -81 -164 -5 -6 -7 -1 -4 13 2 12 0 19 -6 16 -5 -4 -9
-75 -9 -162 0 -86 3 -154 6 -151 3 4 6 54 6 112 0 106 0 107 39 174 22 37 44
66 49 65 5 -2 7 3 4 10 -2 7 3 31 13 53 9 21 17 41 18 44 1 3 7 25 14 50 21
74 23 82 27 165 3 44 6 92 8 108 1 15 0 27 -4 27 -4 0 -7 6 -7 13 -2 42 -27
126 -56 187 -107 226 -293 353 -532 363 -38 2 -88 0 -110 -5z"/>
<path d="M1399 1813 c-13 -16 -12 -17 4 -4 9 7 17 15 17 17 0 8 -8 3 -21 -13z"/>
<path d="M1350 1797 c0 -2 6 -10 14 -16 11 -9 16 -9 22 1 4 7 4 10 -1 6 -4 -4
-14 -3 -22 3 -7 6 -13 9 -13 6z"/>
<path d="M1295 1760 c-4 -6 -1 -9 7 -8 7 2 12 -3 10 -10 -1 -8 2 -11 8 -7 8 5
7 11 -1 21 -14 17 -16 17 -24 4z"/>
<path d="M1353 1755 c0 -8 4 -12 9 -9 5 3 6 10 3 15 -9 13 -12 11 -12 -6z"/>
<path d="M1256 1727 c3 -10 9 -15 12 -12 3 3 0 11 -7 18 -10 9 -11 8 -5 -6z"/>
<path d="M1071 1687 c-8 -10 -7 -14 2 -14 8 0 14 6 14 14 0 7 -1 13 -2 13 -2
0 -8 -6 -14 -13z"/>
<path d="M1029 1657 c6 -8 7 -18 3 -22 -4 -5 -1 -5 6 -1 10 6 10 11 1 22 -6 8
-14 14 -16 14 -3 0 0 -6 6 -13z"/>
<path d="M970 1641 c0 -6 4 -13 10 -16 6 -3 7 1 4 9 -7 18 -14 21 -14 7z"/>
<path d="M950 1620 c0 -5 5 -10 11 -10 5 0 7 5 4 10 -3 6 -8 10 -11 10 -2 0
-4 -4 -4 -10z"/>
<path d="M889 1603 c-13 -16 -12 -17 4 -4 9 7 17 15 17 17 0 8 -8 3 -21 -13z"/>
<path d="M354 1588 c-4 -7 -7 -38 -7 -69 1 -56 28 -125 75 -191 l19 -28 -26 0
c-37 0 -83 29 -106 67 -22 36 -30 59 -36 121 -3 28 -10 42 -20 42 -12 0 -14
-9 -9 -42 19 -136 85 -218 176 -218 28 0 40 -13 22 -24 -14 -9 4 -110 29 -157
13 -24 22 -48 20 -54 -1 -5 0 -7 4 -3 4 4 17 -4 29 -16 27 -29 64 -49 99 -54
30 -3 38 15 10 24 -91 29 -156 107 -166 198 -5 43 10 72 19 39 4 -13 10 -23
15 -23 5 0 9 -5 9 -10 0 -32 147 -150 188 -150 25 0 11 20 -27 39 -66 34 -101
71 -178 188 -101 154 -127 212 -121 274 5 49 -4 71 -18 47z"/>
<path d="M860 1586 c0 -2 8 -10 18 -17 15 -13 16 -12 3 4 -13 16 -21 21 -21
13z"/>
<path d="M790 1261 c0 -6 4 -12 8 -15 5 -3 9 1 9 9 0 8 -4 15 -9 15 -4 0 -8
-4 -8 -9z"/>
<path d="M1345 1180 c-3 -6 1 -7 9 -4 18 7 21 14 7 14 -6 0 -13 -4 -16 -10z"/>
<path d="M1540 1186 c0 -2 8 -10 18 -17 15 -13 16 -12 3 4 -13 16 -21 21 -21
13z"/>
<path d="M1830 1186 c0 -2 7 -7 16 -10 8 -3 12 -2 9 4 -6 10 -25 14 -25 6z"/>
<path d="M2000 1175 c-7 -9 -11 -17 -9 -20 3 -2 10 5 17 15 14 24 10 26 -8 5z"/>
<path d="M2039 1168 c15 -21 31 -23 31 -6 0 6 -3 8 -7 5 -3 -4 -13 -1 -22 6
-14 11 -14 10 -2 -5z"/>
<path d="M2125 1160 c-3 -6 1 -7 9 -4 18 7 21 14 7 14 -6 0 -13 -4 -16 -10z"/>
<path d="M1620 1070 c-52 -27 -96 -53 -98 -58 -1 -4 10 -19 24 -33 15 -13 24
-19 21 -13 -4 7 11 15 44 21 41 9 49 8 45 -3 -3 -8 -1 -14 4 -14 5 0 8 -6 5
-12 -2 -7 -6 -98 -9 -201 -2 -104 -6 -190 -8 -192 -1 -1 -30 -5 -63 -8 -33 -4
-61 -6 -62 -7 -2 0 -3 -8 -3 -19 0 -22 18 -28 83 -26 26 0 47 -2 47 -5 0 -3
45 -5 100 -5 55 0 100 3 100 8 0 4 7 7 15 7 18 0 19 14 2 28 -12 10 -93 28
-108 25 -12 -3 -8 71 4 79 9 6 9 8 0 8 -16 0 -15 102 0 112 9 6 9 8 0 8 -7 0
-13 12 -13 26 0 17 4 23 13 18 9 -6 9 -5 0 7 -8 10 -13 64 -15 155 -3 114 -6
139 -18 141 -8 1 -58 -20 -110 -47z"/>
<path d="M2173 623 c3 -5 8 -39 12 -76 3 -37 10 -90 14 -117 l8 -50 -161 -1
c-89 -1 -172 0 -186 1 -14 1 -22 -1 -19 -4 8 -8 39 -9 227 -7 l152 1 -4 28
c-3 15 -8 47 -11 72 -3 25 -8 54 -10 65 -2 11 -4 37 -4 58 -1 20 -6 37 -12 37
-5 0 -8 -3 -6 -7z"/>
<path d="M1567 479 c7 -7 15 -10 18 -7 3 3 -2 9 -12 12 -14 6 -15 5 -6 -5z"/>
<path d="M1756 482 c-3 -5 1 -9 9 -9 8 0 12 4 9 9 -3 4 -7 8 -9 8 -2 0 -6 -4
-9 -8z"/>
<path d="M1270 371 c0 -4 21 -6 48 -4 79 5 23 -18 -78 -32 -98 -14 -193 -19
-382 -19 -167 0 -219 -3 -222 -13 -6 -15 -5 -15 271 -14 105 0 211 3 235 6 73
8 142 17 163 21 34 6 145 47 145 54 0 3 -40 6 -90 7 -49 1 -90 -2 -90 -6z"/>
<path d="M1475 370 c26 -11 35 -12 35 -2 0 4 -12 8 -27 9 -24 1 -25 1 -8 -7z"/>
<path d="M1522 375 c8 -8 58 -13 58 -6 0 4 -14 8 -31 9 -17 0 -29 -1 -27 -3z"/>
<path d="M1610 372 c0 -4 9 -8 20 -8 11 0 20 4 20 8 0 4 -9 8 -20 8 -11 0 -20
-4 -20 -8z"/>
<path d="M1675 370 c26 -11 35 -12 35 -2 0 4 -12 8 -27 9 -24 1 -25 1 -8 -7z"/>
<path d="M1735 370 c26 -11 35 -12 35 -2 0 4 -12 8 -27 9 -24 1 -25 1 -8 -7z"/>
<path d="M1780 376 c0 -2 11 -6 25 -8 14 -3 25 -1 25 3 0 5 -11 9 -25 9 -14 0
-25 -2 -25 -4z"/>
</g>
</svg>
